<?xml version="1.0" encoding="utf-8"?>
<!-- Generator: Adobe Illustrator 25.2.1, SVG Export Plug-In . SVG Version: 6.00 Build 0)  -->
<svg version="1.1" id="Layer_1" xmlns="http://www.w3.org/2000/svg" xmlns:xlink="http://www.w3.org/1999/xlink" x="0px" y="0px"
	 viewBox="0 0 1920 1200" style="enable-background:new 0 0 1920 1200;" xml:space="preserve">
<style type="text/css">
	.st0{fill:#A512A9;}
	.st1{fill:#4A4ECC;}
	.st2{fill:#641FAD;}
	.st3{fill:#8D0E9D;}
	.st4{fill:#300996;}
	.st5{fill:#6E0089;}
	.st6{fill:#B226BA;}
	.st7{fill:#7F039F;}
	.st8{fill:#3449B6;}
	.st9{fill:#3932B6;}
	.st10{fill:#5F57E0;}
	.st11{fill:#1B179F;}
	.st12{fill:#967CEA;}
	.st13{fill:#4755C2;}
	.st14{fill:#303BB1;}
	.st15{fill:#2D3FAF;}
	.st16{fill:#3E4BBD;}
	.st17{fill:#404BBE;}
	.st18{fill:#68068D;}
	.st19{fill:#7E43C1;}
	.st20{fill:#916ADD;}
	.st21{fill:#8955D4;}
	.st22{fill:#481699;}
	.st23{fill:#53219E;}
	.st24{fill:#6449CA;}
	.st25{fill:#7D53D3;}
	.st26{fill:#AD4ECE;}
	.st27{fill:#533CC0;}
	.st28{fill:#D12FB8;}
	.st29{fill:#8C3EB6;}
	.st30{fill:#5554D3;}
	.st31{fill:#701A95;}
	.st32{fill:#752FAB;}
	.st33{fill:#601A9E;}
	.st34{fill:#6A1991;}
	.st35{fill:#5A1290;}
	.st36{fill:#85219B;}
	.st37{fill:#7B1A8D;}
	.st38{fill:#741190;}
	.st39{fill:#6E3FCB;}
	.st40{fill:#393FAF;}
	.st41{fill:#7D3DCF;}
	.st42{fill:#BF1D82;}
	.st43{fill:#6A169F;}
	.st44{fill:#9E3CB7;}
	.st45{fill:#83209E;}
	.st46{fill:#7E60D0;}
	.st47{fill:#712CBA;}
	.st48{fill:#AC1199;}
	.st49{fill:#931E86;}
	.st50{fill:#C7527F;}
	.st51{fill:#9F2EB2;}
	.st52{fill:#C94AB3;}
	.st53{fill:#8F1B98;}
	.st54{fill:#B665DE;}
	.st55{fill:#72239A;}
	.st56{fill:#810E8F;}
	.st57{fill:#8F2CBB;}
	.st58{fill:#AA1A8C;}
	.st59{fill:#B0288C;}
	.st60{fill:#7F0993;}
	.st61{fill:#670070;}
	.st62{fill:#8C27C3;}
	.st63{fill:#C7417C;}
	.st64{fill:#6B0A95;}
	.st65{fill:#B02AA5;}
	.st66{fill:#A6105A;}
	.st67{fill:#CE389C;}
	.st68{fill:#9A0078;}
	.st69{fill:#CF45B4;}
	.st70{fill:#B9207A;}
	.st71{fill:#C84E99;}
	.st72{fill:#901446;}
	.st73{fill:#9D32BC;}
	.st74{fill:#BF4ACC;}
	.st75{fill:#C73F81;}
	.st76{fill:#CF3D9F;}
	.st77{fill:#E24B9C;}
	.st78{fill:#C845A3;}
	.st79{fill:#C31898;}
	.st80{fill:#CB3284;}
	.st81{fill:#9D078D;}
	.st82{fill:#7F0188;}
	.st83{fill:#D752A5;}
	.st84{fill:#CA368C;}
	.st85{fill:#C4307A;}
	.st86{fill:#910580;}
	.st87{fill:#CE4686;}
	.st88{fill:#C04178;}
	.st89{fill:#EF5EA9;}
	.st90{fill:#A42F5C;}
	.st91{fill:#C53999;}
	.st92{fill:#A016A7;}
	.st93{fill:#CE4885;}
	.st94{fill:#A90C7F;}
</style>
<polygon class="st0" points="1730,326 1859,304 1920,0 "/>
<polygon class="st1" points="193,271 0,277 256,403 "/>
<polygon class="st2" points="960,0 923,290 995.77,168.09 "/>
<polygon class="st3" points="1520,185 1730,326 1920,0 "/>
<polygon class="st4" points="0,600 0,850 70,799 "/>
<polygon class="st5" points="1505,63 1520,185 1920,0 "/>
<polygon class="st6" points="1859,304 1919,295 1920,0 "/>
<polygon class="st7" points="960,0 1505,63 1920,0 "/>
<polygon class="st8" points="0,0 0,277 58,226 "/>
<polygon class="st9" points="234,173 543.59,251.85 562,126 "/>
<polygon class="st10" points="0,277 0,600 186,528 "/>
<polygon class="st11" points="0,277 186,528 256,403 "/>
<polygon class="st12" points="0,600 70,799 186,528 "/>
<polygon class="st13" points="58,226 193,271 234,173 "/>
<polygon class="st14" points="58,226 0,277 193,271 "/>
<polygon class="st15" points="0,0 58,226 234,173 "/>
<polygon class="st16" points="0,0 234,173 562,126 "/>
<polygon class="st17" points="234,173 193,271 256,403 "/>
<polygon class="st18" points="923,290 1011,587 1048.64,351 "/>
<polygon class="st19" points="333.36,831.52 70,799 336,933 "/>
<polygon class="st20" points="186,528 70,799 330,687 "/>
<polygon class="st21" points="330,687 70,799 333.36,831.52 "/>
<polygon class="st22" points="70,799 0,850 336,933 "/>
<polygon class="st23" points="0,850 0,1200 336,933 "/>
<polygon class="st24" points="256,403 186,528 486.75,535.85 "/>
<polygon class="st25" points="186,528 330,687 486.75,535.85 "/>
<polygon class="st26" points="521,1138 0,1200 525,1167 "/>
<polygon class="st27" points="256,403 486.75,535.85 543.59,251.85 "/>
<polygon class="st28" points="1919,295 1859,304 1920,600 "/>
<polygon class="st29" points="336,933 0,1200 521,1138 "/>
<polygon class="st30" points="234,173 256,403 543.59,251.85 "/>
<polygon class="st31" points="336,933 521,1138 524,1072 "/>
<polygon class="st32" points="330,687 333.36,831.52 641,897 "/>
<polygon class="st33" points="486.75,535.85 330,687 641,897 "/>
<polygon class="st34" points="336,933 524,1072 641,897 "/>
<polygon class="st35" points="333.36,831.52 336,933 641,897 "/>
<polygon class="st36" points="524,1072 521,1138 755,913 "/>
<polygon class="st37" points="641,897 524,1072 755,913 "/>
<polygon class="st38" points="521,1138 525,1167 755,913 "/>
<polygon class="st39" points="562,126 923,290 960,0 "/>
<polygon class="st40" points="0,0 562,126 960,0 "/>
<polygon class="st41" points="543.59,251.85 486.75,535.85 756,642 "/>
<polygon class="st42" points="1748,703 1919,959 1920,600 "/>
<polygon class="st43" points="486.75,535.85 641,897 756,642 "/>
<polygon class="st44" points="756,642 641,897 826,758 "/>
<polygon class="st45" points="641,897 755,913 826,758 "/>
<polygon class="st46" points="562,126 543.59,251.85 923,290 "/>
<polygon class="st47" points="543.59,251.85 756,642 923,290 "/>
<polygon class="st48" points="1859,304 1730,326 1920,600 "/>
<polygon class="st49" points="755,913 525,1167 960,1200 "/>
<polygon class="st50" points="1552,1134 960,1200 1920,1200 "/>
<polygon class="st51" points="1048.64,351 1011,587 1234.04,654.66 "/>
<polygon class="st52" points="755,913 960,1200 1007,807 "/>
<polygon class="st53" points="826,758 755,913 1007,807 "/>
<polygon class="st54" points="995.77,168.09 923,290 1048.64,351 "/>
<polygon class="st55" points="756,642 826,758 1011,587 "/>
<polygon class="st56" points="826,758 1007,807 1011,587 "/>
<polygon class="st57" points="923,290 756,642 1011,587 "/>
<polygon class="st58" points="1234.04,654.66 1007,807 1246,870 "/>
<polygon class="st59" points="1007,807 960,1200 1246,870 "/>
<polygon class="st60" points="1048.64,351 1234.04,654.66 1353,438 "/>
<polygon class="st61" points="1011,587 1007,807 1234.04,654.66 "/>
<polygon class="st62" points="960,0 995.77,168.09 1505,63 "/>
<polygon class="st63" points="1501,1022 1552,1134 1577,1041 "/>
<polygon class="st64" points="1505,63 995.77,168.09 1520,185 "/>
<polygon class="st65" points="1353,438 1234.04,654.66 1486,621 "/>
<polygon class="st66" points="1538,871 1501,1022 1577,1041 "/>
<polygon class="st67" points="1246,870 1443,926 1486,621 "/>
<polygon class="st68" points="1234.04,654.66 1246,870 1486,621 "/>
<polygon class="st69" points="1603.05,399.14 1486,621 1619,686 "/>
<polygon class="st70" points="1246,870 960,1200 1501,1022 "/>
<polygon class="st71" points="1443,926 1246,870 1501,1022 "/>
<polygon class="st72" points="1919,959 1701,1082 1920,1200 "/>
<polygon class="st73" points="995.77,168.09 1048.64,351 1520,185 "/>
<polygon class="st74" points="1048.64,351 1353,438 1520,185 "/>
<polygon class="st75" points="1501,1022 960,1200 1552,1134 "/>
<polygon class="st76" points="1486,621 1443,926 1538,871 "/>
<polygon class="st77" points="1443,926 1501,1022 1538,871 "/>
<polygon class="st78" points="1486,621 1538,871 1619,686 "/>
<polygon class="st79" points="1603.05,399.14 1748,703 1920,600 "/>
<polygon class="st80" points="1538,871 1683,991 1722,867 "/>
<polygon class="st81" points="1353,438 1486,621 1603.05,399.14 "/>
<polygon class="st82" points="1520,185 1353,438 1603.05,399.14 "/>
<polygon class="st83" points="1619,686 1538,871 1722,867 "/>
<polygon class="st84" points="1748,703 1722,867 1919,959 "/>
<polygon class="st85" points="1538,871 1577,1041 1683,991 "/>
<polygon class="st86" points="1730,326 1603.05,399.14 1920,600 "/>
<polygon class="st87" points="1683,991 1577,1041 1701,1082 "/>
<polygon class="st88" points="1577,1041 1552,1134 1701,1082 "/>
<polygon class="st89" points="1722,867 1683,991 1919,959 "/>
<polygon class="st90" points="1701,1082 1552,1134 1920,1200 "/>
<polygon class="st91" points="1619,686 1722,867 1748,703 "/>
<polygon class="st92" points="1520,185 1603.05,399.14 1730,326 "/>
<polygon class="st93" points="1683,991 1701,1082 1919,959 "/>
<polygon class="st94" points="1603.05,399.14 1619,686 1748,703 "/>
</svg>
