<?xml version="1.0" encoding="utf-8"?>
<!-- Generator: Adobe Illustrator 25.2.1, SVG Export Plug-In . SVG Version: 6.00 Build 0)  -->
<svg version="1.1" id="Layer_1" xmlns="http://www.w3.org/2000/svg" xmlns:xlink="http://www.w3.org/1999/xlink" x="0px" y="0px"
	 viewBox="0 0 433.14 355.51" style="enable-background:new 0 0 433.14 355.51;" xml:space="preserve">
<style type="text/css">
	.st0{fill:#F0F0F0;}
	.st1{fill:#C9C9C9;}
	.st2{fill:#DBDBDB;}
	.st3{fill:#BABABA;}
	.st4{fill:#E0E0E0;}
	.st5{fill:#774699;}
	.st6{fill:#DCDCF2;}
	.st7{fill:#C9C9F2;}
	.st8{fill:#673C85;}
	.st9{fill:#B3B3B3;}
	.st10{fill:#BDBDBD;}
	.st11{fill:#D43F92;}
	.st12{fill:#F4EFF4;}
	.st13{fill:#D0BAE3;}
	.st14{fill:#D0156A;}
	.st15{fill:#E878B7;}
	.st16{fill:#FFE0F2;}
	.st17{fill:#AD7ECF;}
	.st18{fill:#EDD4FF;}
</style>
<path class="st0" d="M363.37,75.65C329.71,32.3,270.16,53.2,224.2,37.6C167.6,18.38,137.48,6.99,85.8,49.77
	C14.44,108.85-27.25,245.91,52.3,315.51c61.54,53.84,194.05,49.63,262.27,9.45C402.6,273.09,426.27,156.65,363.37,75.65z"/>
<path class="st1" d="M116.8,252.55c4.53-11.18-2.87-63.5-33.2-86.08c-9.68-7.2-20.6-13.68-26.67-24.1
	c-3.04-5.22-4.51-11.2-7.15-16.63s-6.95-10.63-12.87-11.81c-9.65-1.91-18.24,8.39-18.29,18.23c-0.05,9.84,5.7,18.67,11.56,26.58
	S42.42,174.76,44,184.47c1.81,11.08-1.99,25.05,7.02,31.75c7.87,5.86,20.9,1.46,27.5,8.72c4.21,4.64,3.56,11.71,4.73,17.86
	c1.17,6.15,7.2,12.84,12.71,9.86L116.8,252.55z"/>
<g>
	<path class="st2" d="M109.01,224.89c-14.87,0-29.29-10.95-33.13-25.34c-0.44-1.66-0.76-3.37-1.07-5.02
		c-0.51-2.72-0.99-5.3-1.99-7.74c-2.67-6.56-8.67-11.09-14.46-15.46c-1.97-1.49-4-3.02-5.89-4.62
		c-10.22-8.67-17.42-20.66-20.26-33.76l1.95-0.42c2.75,12.67,9.71,24.27,19.6,32.66c1.84,1.56,3.86,3.08,5.8,4.55
		c6.01,4.54,12.22,9.23,15.11,16.3c1.07,2.63,1.6,5.43,2.1,8.13c0.3,1.61,0.61,3.28,1.04,4.87c3.7,13.86,17.85,24.35,32.17,23.84
		l0.07,2C109.71,224.88,109.36,224.89,109.01,224.89z"/>
</g>
<path class="st3" d="M92.46,250.17c7.44-3.13,8.9-13.89,4.76-20.82c-4.14-6.93-11.9-10.76-19.41-13.73s-15.47-5.61-21.24-11.26
	c-5.53-5.41-8.35-12.92-11.36-20.04c-3-7.13-6.63-14.47-13.06-18.76c-6.43-4.3-16.43-4.16-20.78,2.24
	c-5.42,7.98,1.09,18.77,8.6,24.83c7.51,6.07,16.93,11.51,19.14,20.91c1.59,6.79-1.14,14.03,0.42,20.83
	c1.75,7.62,8.45,13.01,15.13,17.07s14.01,7.64,18.65,13.93c4.64,6.29,5.26,16.45-1.06,21.04L92.46,250.17z"/>
<g>
	<path class="st1" d="M84.67,252.66c-0.76-6.91-8.63-10.75-11.98-12.08c-1.44-0.57-2.95-1.1-4.41-1.61
		c-4.57-1.6-9.29-3.24-12.95-6.59c-2.73-2.5-3.33-6.3-3.91-9.97c-0.33-2.1-0.65-4.09-1.32-5.82c-2.32-5.9-5.43-11.5-8.45-16.91
		c-3.04-5.47-6.19-11.12-8.56-17.15l1.86-0.73c2.32,5.9,5.43,11.5,8.45,16.91c3.04,5.47,6.19,11.12,8.56,17.15
		c0.76,1.94,1.1,4.12,1.44,6.24c0.55,3.49,1.07,6.78,3.28,8.81c3.36,3.07,7.68,4.58,12.26,6.18c1.48,0.52,3.01,1.05,4.49,1.64
		c7.79,3.1,12.61,8.1,13.23,13.72L84.67,252.66z"/>
</g>
<path class="st4" d="M12.58,247.16c5.6,25.79,18.23,49.54,39.73,68.35c61.54,53.84,194.05,49.63,262.27,9.45
	c32.15-18.94,55.7-46.5,69.6-77.79H12.58z"/>
<g>
	<path class="st5" d="M274.78,315.9H140.16c-16.92,0-30.64-13.72-30.64-30.64V30.64C109.52,13.72,123.24,0,140.16,0h134.63
		c16.92,0,30.64,13.72,30.64,30.64v254.63C305.42,302.18,291.7,315.9,274.78,315.9z"/>
	<path class="st6" d="M140.16,302.16c-9.32,0-16.9-7.58-16.9-16.9V39.79c0-9.32,7.58-16.9,16.9-16.9h134.63
		c9.32,0,16.9,7.58,16.9,16.9v245.47c0,9.32-7.58,16.9-16.9,16.9H140.16z"/>
	<path class="st7" d="M269.03,291.75H148.44c-7.25,0-13.13-5.88-13.13-13.13l0,0c0-7.25,5.88-13.13,13.13-13.13h120.59
		c7.25,0,13.13,5.88,13.13,13.13l0,0C282.16,285.87,276.28,291.75,269.03,291.75z"/>
</g>
<path class="st8" d="M238.6,16.33h-62.25c-2.39,0-4.33-1.94-4.33-4.33v0c0-2.39,1.94-4.33,4.33-4.33h62.25
	c2.39,0,4.33,1.94,4.33,4.33v0C242.92,14.39,240.99,16.33,238.6,16.33z"/>
<path class="st1" d="M327.14,286.86c3.67-20.31-0.35-41.91-11.07-59.54c-4.41-7.25-9.96-13.97-12.52-22.05s-1.15-18.32,6.02-22.85
	c7.98-5.05,19.2-0.33,24.44,7.53c5.24,7.85,6.09,17.74,6.77,27.16c5.84-23.3,11.67-46.6,17.51-69.89
	c1.51-6.01,3.08-12.16,6.61-17.25c3.54-5.09,9.51-8.95,15.66-8.19c7.61,0.94,12.92,8.68,13.71,16.32s-1.84,15.16-4.44,22.38
	c-6.71,18.66-13.42,37.33-20.13,55.99c4.86-16.66,17.27-30.96,33.09-38.12c9.69-4.39,23.46-4.91,28.67,4.37
	c4.09,7.27,0.22,16.84-6.14,22.24c-6.36,5.4-14.61,7.86-22.3,11.08c-27.4,11.46-49.75,34.45-60.43,62.16L327.14,286.86z"/>
<g>
	<path class="st2" d="M334.6,261.39l-1.44-1.39c12.45-12.88,21.17-28.92,25.21-46.38c1.49-6.44,2.34-13.13,3.17-19.6
		c0.63-4.96,1.29-10.09,2.23-15.1c2.67-14.24,7.4-24.75,14.48-32.14l1.44,1.38c-6.8,7.1-11.37,17.28-13.96,31.12
		c-0.93,4.95-1.58,10.06-2.21,14.99c-0.83,6.52-1.7,13.27-3.21,19.8C356.19,231.88,347.3,248.24,334.6,261.39z"/>
</g>
<g>
	<path class="st2" d="M344.47,249.39l-1.39-1.44c6.69-6.45,14.38-13.85,22.07-21.25c7.78-7.49,15.57-14.98,22.34-21.51
		c8.85-8.53,17.71-16.26,28.83-17.14l0.16,1.99c-10.46,0.83-19.03,8.32-27.6,16.58c-6.77,6.53-14.56,14.02-22.34,21.51
		C358.84,235.55,351.16,242.94,344.47,249.39z"/>
</g>
<path class="st9" d="M322.71,268.72c0.14-3.46,0.17-7.07,1.72-10.17c1.55-3.1,5.17-5.5,8.45-4.4c4.37,1.46,5,7.29,4.83,11.89
	c5.85-5.08,11.69-10.17,17.54-15.25c3.23-2.81,6.57-5.68,10.61-7.08c4.05-1.4,9.02-0.98,11.95,2.15c3.01,3.21,2.98,8.46,0.86,12.32
	c-2.12,3.86-5.91,6.51-9.86,8.46c-3.61,1.78-7.6,3.19-10.23,6.23c-2.63,3.05-3.04,8.49,0.38,10.6c3.88,2.41,9.55-1.03,13.33,1.54
	c3.1,2.11,2.66,7.16,0.1,9.9c-2.56,2.74-6.42,3.77-10.06,4.68c-7.95,1.98-15.89,3.96-23.84,5.94c-4.38,1.09-17.6,6.93-21.64,4.35
	c-3.94-2.51,1.77-13.64,2.71-17.72C321.33,284.47,322.39,276.61,322.71,268.72z"/>
<path class="st1" d="M69.19,300.92c1.09-21.79-9.36-43.83-26.92-56.78c-6.3-4.65-13.38-8.16-19.56-12.95s-11.6-11.32-12.62-19.08
	c-9.07,10.03-11.73,24.77-9.16,38.05s9.83,25.25,18.5,35.63c15.26,18.27,35.34,32.49,57.64,40.82L69.19,300.92z"/>
<path class="st10" d="M87.53,336.35c-1.43-22.26-14.44-42.15-29.4-58.7c-7.96-8.8-17.23-18.68-16.13-30.49
	c-10.32,12.65-12.93,31.14-6.51,46.16c7.6,17.77,25.42,28.59,42.16,38.24L87.53,336.35z"/>
<g>
	<circle class="st11" cx="100.46" cy="230.64" r="34.85"/>
	<path id="XMLID_1_" class="st12" d="M91.63,213.62c6.35-0.07,8.94,4.22,8.94,4.22s2.5-4.16,8.85-4.22
		c6.35-0.07,11.15,5.25,11.21,10.21c0.05,4.96-0.68,8.51-9.83,16.29c-5.8,4.93-9.92,7.29-9.92,7.29s-4.18-2.27-10.07-7.08
		c-9.31-7.6-10.11-11.13-10.17-16.09C80.59,219.29,85.28,213.69,91.63,213.62z"/>
</g>
<g id="XMLID_130_">
	
		<ellipse id="XMLID_119_" transform="matrix(0.7071 -0.7071 0.7071 0.7071 55.3768 235.7507)" class="st13" cx="312.26" cy="51.03" rx="36.63" ry="36.63"/>
	<circle id="XMLID_54_" class="st5" cx="297.72" cy="36.54" r="4.99"/>
	<path id="XMLID_53_" class="st14" d="M312.26,67.33L312.26,67.33c-8.28,0-14.99-6.71-14.99-14.99v-5.72h29.97v5.72
		C327.25,60.62,320.54,67.33,312.26,67.33z"/>
	<g id="XMLID_132_">
		<path id="XMLID_52_" class="st5" d="M330.34,41.85c-0.27,0-0.54-0.06-0.79-0.19l-7.09-3.53c-0.6-0.3-0.99-0.92-0.99-1.59
			c0-0.68,0.38-1.29,0.99-1.59l7.08-3.52c0.88-0.44,1.95-0.08,2.39,0.8c0.44,0.88,0.08,1.95-0.8,2.39l-3.88,1.93l3.89,1.94
			c0.88,0.44,1.24,1.51,0.8,2.39C331.63,41.49,331,41.85,330.34,41.85z"/>
	</g>
</g>
<g>
	<path class="st15" d="M202.99,127.66H57.72c-8.83,0-15.99-7.16-15.99-15.99V53.82c0-8.83,7.16-15.99,15.99-15.99h145.27
		c8.83,0,15.99,7.16,15.99,15.99v57.85C218.98,120.5,211.82,127.66,202.99,127.66z"/>
	<g>
		<g>
			<path class="st16" d="M112.78,94.78H65.91c-2.22,0-4.02-1.8-4.02-4.02v0c0-2.22,1.8-4.02,4.02-4.02h46.86
				c2.22,0,4.02,1.8,4.02,4.02v0C116.8,92.98,115,94.78,112.78,94.78z"/>
			<path class="st16" d="M194.62,94.78H127.1c-2.22,0-4.02-1.8-4.02-4.02v0c0-2.22,1.8-4.02,4.02-4.02h67.52
				c2.22,0,4.02,1.8,4.02,4.02v0C198.64,92.98,196.84,94.78,194.62,94.78z"/>
		</g>
		<g>
			<path class="st16" d="M103.62,109.55H65.91c-2.22,0-4.02-1.8-4.02-4.02v0c0-2.22,1.8-4.02,4.02-4.02h37.71
				c2.22,0,4.02,1.8,4.02,4.02v0C107.64,107.75,105.84,109.55,103.62,109.55z"/>
			<path class="st16" d="M167.15,109.55h-49.2c-2.22,0-4.02-1.8-4.02-4.02v0c0-2.22,1.8-4.02,4.02-4.02h49.2
				c2.22,0,4.02,1.8,4.02,4.02v0C171.16,107.75,169.37,109.55,167.15,109.55z"/>
		</g>
		<g>
			<path class="st16" d="M87.64,80H65.91c-2.22,0-4.02-1.8-4.02-4.02v0c0-2.22,1.8-4.02,4.02-4.02h21.73c2.22,0,4.02,1.8,4.02,4.02
				v0C91.66,78.2,89.86,80,87.64,80z"/>
			<path class="st16" d="M134.82,80h-32.86c-2.22,0-4.02-1.8-4.02-4.02v0c0-2.22,1.8-4.02,4.02-4.02h32.86
				c2.22,0,4.02,1.8,4.02,4.02v0C138.84,78.2,137.04,80,134.82,80z"/>
		</g>
	</g>
	<g>
		<circle class="st11" cx="89.4" cy="37.83" r="24.53"/>
		<circle class="st16" cx="89.4" cy="32.02" r="11.06"/>
		<path class="st16" d="M89.4,45.29c-7.47,0-14.25,2.94-19.25,7.73c4.49,5.69,11.44,9.34,19.25,9.34s14.76-3.65,19.25-9.34
			C103.64,48.23,96.87,45.29,89.4,45.29z"/>
	</g>
	<path class="st15" d="M192.65,116.54v37.54c0,3.32-4.02,4.98-6.36,2.64l-38.84-38.84L192.65,116.54z"/>
</g>
<g>
	<path class="st17" d="M174.15,256.79h145.27c8.83,0,15.99-7.16,15.99-15.99v-57.85c0-8.83-7.16-15.99-15.99-15.99H174.15
		c-8.83,0-15.99,7.16-15.99,15.99v57.85C158.16,249.63,165.32,256.79,174.15,256.79z"/>
	<g>
		<g>
			<path class="st18" d="M229.38,223.9h-46.86c-2.22,0-4.02-1.8-4.02-4.02v0c0-2.22,1.8-4.02,4.02-4.02h46.86
				c2.22,0,4.02,1.8,4.02,4.02v0C233.4,222.1,231.6,223.9,229.38,223.9z"/>
			<path class="st18" d="M311.22,223.9H243.7c-2.22,0-4.02-1.8-4.02-4.02v0c0-2.22,1.8-4.02,4.02-4.02h67.52
				c2.22,0,4.02,1.8,4.02,4.02v0C315.24,222.1,313.44,223.9,311.22,223.9z"/>
		</g>
		<g>
			<path class="st18" d="M220.22,238.68h-37.71c-2.22,0-4.02-1.8-4.02-4.02v0c0-2.22,1.8-4.02,4.02-4.02h37.71
				c2.22,0,4.02,1.8,4.02,4.02v0C224.24,236.88,222.44,238.68,220.22,238.68z"/>
			<path class="st18" d="M283.75,238.68h-49.2c-2.22,0-4.02-1.8-4.02-4.02v0c0-2.22,1.8-4.02,4.02-4.02h49.2
				c2.22,0,4.02,1.8,4.02,4.02v0C287.77,236.88,285.97,238.68,283.75,238.68z"/>
		</g>
		<g>
			<path class="st18" d="M204.25,209.12h-21.73c-2.22,0-4.02-1.8-4.02-4.02v0c0-2.22,1.8-4.02,4.02-4.02h21.73
				c2.22,0,4.02,1.8,4.02,4.02v0C208.27,207.32,206.47,209.12,204.25,209.12z"/>
			<path class="st18" d="M251.43,209.12h-32.86c-2.22,0-4.02-1.8-4.02-4.02v0c0-2.22,1.8-4.02,4.02-4.02h32.86
				c2.22,0,4.02,1.8,4.02,4.02v0C255.44,207.32,253.65,209.12,251.43,209.12z"/>
		</g>
	</g>
	<g>
		<circle class="st8" cx="287.74" cy="166.96" r="24.53"/>
		<circle class="st18" cx="287.74" cy="161.15" r="11.06"/>
		<path class="st18" d="M287.74,174.42c7.47,0,14.25,2.94,19.25,7.73c-4.49,5.69-11.44,9.34-19.25,9.34s-14.76-3.65-19.25-9.34
			C273.49,177.36,280.27,174.42,287.74,174.42z"/>
	</g>
	<path class="st17" d="M184.48,245.67v37.54c0,3.32,4.02,4.98,6.36,2.64L229.69,247L184.48,245.67z"/>
</g>
</svg>
