<?xml version="1.0" encoding="utf-8"?>
<!-- Generator: Adobe Illustrator 25.2.1, SVG Export Plug-In . SVG Version: 6.00 Build 0)  -->
<svg version="1.1" id="Layer_1" xmlns="http://www.w3.org/2000/svg" xmlns:xlink="http://www.w3.org/1999/xlink" x="0px" y="0px"
	 viewBox="0 0 1920 1200" style="enable-background:new 0 0 1920 1200;" xml:space="preserve">
<style type="text/css">
	.st0{fill:#900088;}
	.st1{fill:#9108A0;}
	.st2{fill:#6951DD;}
	.st3{fill:#E573B1;}
	.st4{fill:#4F19A3;}
	.st5{fill:#2D2DA9;}
	.st6{fill:#4650C3;}
	.st7{fill:#7143CA;}
	.st8{fill:#D048B6;}
	.st9{fill:#B444CC;}
	.st10{fill:#AF62CA;}
	.st11{fill:#7F0C8D;}
	.st12{fill:#8129A4;}
	.st13{fill:#68068F;}
	.st14{fill:#7734B5;}
	.st15{fill:#5D30BE;}
	.st16{fill:#49139D;}
	.st17{fill:#A933AD;}
	.st18{fill:#8317A8;}
	.st19{fill:#D15DA8;}
</style>
<polygon class="st0" points="1603.05,399.14 1920,600 1920,0 "/>
<polygon class="st1" points="960,0 1603.05,399.14 1920,0 "/>
<polygon class="st2" points="0,600 486.75,535.85 543.59,251.85 "/>
<polygon class="st3" points="1234.04,654.66 960,1200 1920,1200 "/>
<polygon class="st4" points="0,600 0,1200 333.36,831.52 "/>
<polygon class="st5" points="0,0 543.59,251.85 960,0 "/>
<polygon class="st6" points="0,0 0,600 543.59,251.85 "/>
<polygon class="st7" points="0,600 333.36,831.52 486.75,535.85 "/>
<polygon class="st8" points="1603.05,399.14 1234.04,654.66 1920,600 "/>
<polygon class="st9" points="995.77,168.09 1048.64,351 1603.05,399.14 "/>
<polygon class="st10" points="486.75,535.85 333.36,831.52 960,1200 "/>
<polygon class="st11" points="1048.64,351 1234.04,654.66 1603.05,399.14 "/>
<polygon class="st12" points="333.36,831.52 0,1200 960,1200 "/>
<polygon class="st13" points="1048.64,351 486.75,535.85 1234.04,654.66 "/>
<polygon class="st14" points="995.77,168.09 543.59,251.85 1048.64,351 "/>
<polygon class="st15" points="960,0 543.59,251.85 995.77,168.09 "/>
<polygon class="st16" points="543.59,251.85 486.75,535.85 1048.64,351 "/>
<polygon class="st17" points="486.75,535.85 960,1200 1234.04,654.66 "/>
<polygon class="st18" points="960,0 995.77,168.09 1603.05,399.14 "/>
<polygon class="st19" points="1920,600 1234.04,654.66 1920,1200 "/>
</svg>
