<?xml version="1.0" encoding="utf-8"?>
<!-- Generator: Adobe Illustrator 25.2.1, SVG Export Plug-In . SVG Version: 6.00 Build 0)  -->
<svg version="1.1" id="Layer_1" xmlns="http://www.w3.org/2000/svg" xmlns:xlink="http://www.w3.org/1999/xlink" x="0px" y="0px"
	 viewBox="0 0 389.67 363.39" style="enable-background:new 0 0 389.67 363.39;" xml:space="preserve">
<style type="text/css">
	.st0{fill:#F0F0F0;}
	.st1{fill:#E0E0E0;}
	.st2{fill:#E878B7;}
	.st3{fill:#FFFFFF;}
	.st4{fill:#AD7ECF;}
	.st5{fill:#D43F92;}
	.st6{fill:#BF046E;}
	.st7{fill:#D9057D;}
	.st8{fill:#C690ED;}
	.st9{fill:#F248A7;}
	.st10{fill:#FFEFE4;}
	.st11{fill:#DCDCF2;}
	.st12{fill:#774699;}
	.st13{fill:#C28DE8;}
</style>
<g>
	<g>
		<path class="st0" d="M346.78,270.6c0.16-0.18,0.33-0.37,0.49-0.55c2.77-3.14,5.41-6.38,7.92-9.69c0.11-0.15,0.23-0.3,0.34-0.45
			c2.53-3.36,4.93-6.81,7.19-10.33c0.07-0.1,0.13-0.2,0.2-0.3c2.28-3.57,4.43-7.22,6.43-10.93c0.03-0.05,0.05-0.1,0.08-0.14
			c2.02-3.76,3.9-7.59,5.62-11.47c0,0,0,0,0,0l0,0c24.16-54.4,19.13-120.09-20.8-171.51c-33.66-43.35-93.21-22.45-139.17-38.05
			c-56.6-19.22-86.73-30.61-138.41,12.18C17.39,78.42-21.4,181.33,12.79,254.65c0.05,0.12,0.11,0.23,0.17,0.35
			c0.62,1.31,1.26,2.62,1.92,3.91c0.15,0.29,0.3,0.57,0.45,0.86c0.58,1.12,1.18,2.23,1.8,3.33c0.22,0.38,0.44,0.76,0.66,1.14
			c0.58,1,1.17,1.99,1.77,2.97c0.27,0.44,0.55,0.87,0.82,1.31c0.58,0.92,1.18,1.83,1.78,2.73c0.32,0.47,0.64,0.94,0.96,1.41
			c0.6,0.86,1.21,1.71,1.83,2.55c0.36,0.49,0.72,0.98,1.08,1.46c0.62,0.81,1.25,1.62,1.89,2.42c0.39,0.49,0.78,0.99,1.19,1.48
			c0.65,0.79,1.32,1.56,1.99,2.34c0.42,0.48,0.83,0.97,1.26,1.45c0.7,0.78,1.42,1.55,2.14,2.32c0.43,0.45,0.85,0.91,1.28,1.36
			c0.8,0.82,1.63,1.63,2.46,2.44c0.39,0.38,0.76,0.76,1.15,1.13c1.23,1.17,2.49,2.32,3.79,3.46c3.85,3.36,7.97,6.5,12.34,9.42
			s8.98,5.61,13.8,8.09c6.03,3.1,12.39,5.86,19.01,8.3c6.62,2.43,13.51,4.54,20.6,6.33c1.42,0.36,2.84,0.7,4.28,1.04
			c2.87,0.67,5.76,1.28,8.69,1.85c8.77,1.7,17.77,2.95,26.9,3.78c3.04,0.27,6.1,0.5,9.16,0.68c9.2,0.54,18.48,0.66,27.73,0.37
			c7.71-0.24,15.41-0.76,23.02-1.55c12.18-1.26,24.14-3.22,35.63-5.82c10.05-2.28,19.74-5.05,28.89-8.29
			c1.31-0.46,2.6-0.94,3.89-1.42c2.57-0.96,5.09-1.97,7.56-3c7.41-3.12,14.37-6.57,20.77-10.33c1.79-1.05,3.54-2.15,5.28-3.25
			c0.45-0.29,0.9-0.58,1.35-0.87c1.56-1.01,3.1-2.05,4.62-3.1c0.17-0.12,0.34-0.23,0.51-0.35c1.67-1.17,3.31-2.38,4.93-3.6
			c0.38-0.29,0.76-0.58,1.14-0.87c1.41-1.09,2.8-2.19,4.17-3.31c0.22-0.18,0.44-0.35,0.66-0.53c1.57-1.3,3.11-2.63,4.62-3.97
			c0.28-0.25,0.56-0.5,0.83-0.75c1.34-1.21,2.66-2.43,3.95-3.67c0.2-0.2,0.41-0.39,0.62-0.59c1.48-1.44,2.93-2.89,4.35-4.37
			c0.15-0.16,0.3-0.32,0.45-0.48C344.24,273.41,345.53,272.01,346.78,270.6z"/>
		<path class="st1" d="M307.49,110.57c-20.86,16.18-40.72,34.45-65.02,44.76c-24.3,10.31-54.98,10.93-74.76-6.55
			c-11.15-9.85-17.43-24.03-27.12-35.31C116.47,85.38,73.67,79.31,38.3,90.23c-4.42,1.37-8.75,2.95-12.99,4.73
			c-25.87,50.16-35.05,111.36-12.51,159.7c0.05,0.12,0.11,0.23,0.17,0.35c0.62,1.31,1.26,2.62,1.92,3.91
			c0.15,0.29,0.3,0.57,0.45,0.86c0.58,1.12,1.18,2.23,1.8,3.33c0.22,0.38,0.44,0.76,0.66,1.14c0.58,1,1.17,1.99,1.77,2.97
			c0.27,0.44,0.55,0.87,0.82,1.31c0.58,0.92,1.18,1.83,1.78,2.73c0.32,0.47,0.64,0.94,0.96,1.41c0.6,0.86,1.21,1.71,1.83,2.55
			c0.36,0.49,0.72,0.98,1.08,1.46c0.62,0.81,1.25,1.62,1.89,2.42c0.39,0.49,0.78,0.99,1.19,1.48c0.65,0.79,1.32,1.56,1.99,2.34
			c0.42,0.48,0.83,0.97,1.26,1.45c0.7,0.78,1.42,1.55,2.14,2.32c0.43,0.45,0.85,0.91,1.28,1.36c0.8,0.82,1.63,1.63,2.46,2.44
			c0.39,0.38,0.76,0.76,1.15,1.13c1.23,1.17,2.49,2.32,3.79,3.46c3.85,3.36,7.97,6.5,12.34,9.42s8.98,5.61,13.8,8.09
			c6.03,3.1,12.39,5.86,19.01,8.3c6.62,2.43,13.51,4.54,20.6,6.33c1.42,0.36,2.84,0.7,4.28,1.04c2.87,0.67,5.76,1.28,8.69,1.85
			c8.77,1.7,17.77,2.95,26.9,3.78c3.04,0.27,6.1,0.5,9.16,0.68c9.2,0.54,18.48,0.66,27.73,0.37c7.71-0.24,15.41-0.76,23.02-1.55
			c12.18-1.26,24.14-3.22,35.63-5.82c10.05-2.28,19.74-5.05,28.89-8.29c1.31-0.46,2.6-0.94,3.89-1.42c2.57-0.96,5.09-1.97,7.56-3
			c7.41-3.12,14.37-6.57,20.77-10.33c1.79-1.05,3.54-2.15,5.28-3.25c0.45-0.29,0.9-0.58,1.35-0.87c1.56-1.01,3.1-2.05,4.62-3.1
			c0.17-0.12,0.34-0.23,0.51-0.35c1.67-1.17,3.31-2.38,4.93-3.6c0.38-0.29,0.76-0.58,1.14-0.87c1.41-1.09,2.8-2.19,4.17-3.31
			c0.22-0.18,0.44-0.35,0.66-0.53c1.57-1.3,3.11-2.63,4.62-3.97c0.28-0.25,0.56-0.5,0.83-0.75c1.34-1.21,2.66-2.43,3.95-3.67
			c0.2-0.2,0.41-0.39,0.62-0.59c1.48-1.44,2.93-2.89,4.35-4.37c0.15-0.16,0.3-0.32,0.45-0.48c1.31-1.38,2.59-2.77,3.85-4.19
			c0.16-0.18,0.33-0.37,0.49-0.55c2.77-3.14,5.41-6.38,7.92-9.69c0.11-0.15,0.23-0.3,0.34-0.45c2.53-3.36,4.93-6.81,7.19-10.33
			c0.07-0.1,0.13-0.2,0.2-0.3c2.28-3.57,4.43-7.22,6.43-10.93c0.03-0.05,0.05-0.1,0.08-0.14c2.02-3.76,3.9-7.59,5.62-11.47
			c0,0,0,0,0,0c20.56-46.28,19.96-100.74-5.26-147.63C346.85,82.82,326.05,96.16,307.49,110.57z"/>
	</g>
	<path class="st2" d="M91.92,26.73h-3.88v-3.88c0-2.13-1.73-3.86-3.86-3.86h0c-2.13,0-3.86,1.73-3.86,3.86v3.88h-3.88
		c-2.13,0-3.86,1.73-3.86,3.86c0,2.13,1.73,3.86,3.86,3.86h3.88v3.88c0,2.13,1.73,3.86,3.86,3.86h0c2.13,0,3.86-1.73,3.86-3.86
		v-3.88h3.88c2.13,0,3.86-1.73,3.86-3.86C95.79,28.46,94.06,26.73,91.92,26.73z"/>
	<path class="st3" d="M337.39,136.93h-3.88v-3.88c0-2.13-1.73-3.86-3.86-3.86h0c-2.13,0-3.86,1.73-3.86,3.86v3.88h-3.88
		c-2.13,0-3.86,1.73-3.86,3.86c0,2.13,1.73,3.86,3.86,3.86h3.88v3.88c0,2.13,1.73,3.86,3.86,3.86h0c2.13,0,3.86-1.73,3.86-3.86
		v-3.88h3.88c2.13,0,3.86-1.73,3.86-3.86C341.25,138.66,339.52,136.93,337.39,136.93z"/>
	<circle class="st4" cx="351.28" cy="52.97" r="7.49"/>
	<circle class="st2" cx="45.1" cy="284.94" r="7.49"/>
	<g>
		<path class="st5" d="M68.86,211.76c0,15.42,38.06,50.46,55.01,65.31c4.37,3.82,11,3.38,14.82-0.99l56.15-64.32l0-209.84
			C168.45,1.92,68.86,201.53,68.86,211.76z"/>
		<path class="st5" d="M194.84,1.92l0,209.84l56.15,64.32c3.82,4.37,10.45,4.81,14.82,0.99c16.95-14.84,55.01-49.89,55.01-65.31
			C320.81,201.53,221.22,1.92,194.84,1.92z"/>
	</g>
	<g>
		<path class="st6" d="M194.84,11.79l-19.92,222.79l17.44,30.28c1.1,1.91,3.86,1.91,4.97,0l17.44-30.28L194.84,11.79z"/>
		<path class="st7" d="M194.83,11.81v254.48c0.97,0,1.94-0.48,2.49-1.43l17.44-30.28L194.84,11.79L194.83,11.81z"/>
	</g>
	<g>
		<path class="st8" d="M194.84,363.39L194.84,363.39c-3.39,0-6.13-2.75-6.13-6.13V301.1c0-3.39,2.75-6.13,6.13-6.13h0
			c3.39,0,6.13,2.75,6.13,6.13v56.15C200.97,360.64,198.23,363.39,194.84,363.39z"/>
		<path class="st8" d="M167.26,344.29L167.26,344.29c-3.39,0-6.13-2.75-6.13-6.13V301.1c0-3.39,2.75-6.13,6.13-6.13h0
			c3.39,0,6.13,2.75,6.13,6.13v37.06C173.4,341.55,170.65,344.29,167.26,344.29z"/>
		<path class="st8" d="M222.41,325.2L222.41,325.2c-3.39,0-6.13-2.75-6.13-6.13V301.1c0-3.39,2.75-6.13,6.13-6.13h0
			c3.39,0,6.13,2.75,6.13,6.13v17.96C228.55,322.45,225.8,325.2,222.41,325.2z"/>
	</g>
	<g>
		<path class="st3" d="M297.97,273.56c-10.9,0-19.77-8.87-19.77-19.77v-55.75c0-10.9,8.87-19.77,19.77-19.77h68.73
			c10.9,0,19.77,8.87,19.77,19.77v55.75c0,10.9-8.87,19.77-19.77,19.77H297.97z"/>
		<path class="st9" d="M287.93,253.79v-55.75c0-5.54,4.49-10.04,10.04-10.04h68.73c5.54,0,10.04,4.49,10.04,10.04v55.75
			c0,5.54-4.49,10.04-10.04,10.04h-68.73C292.42,263.82,287.93,259.33,287.93,253.79z"/>
		<path class="st10" d="M347.77,223.88l-26.22-15.14c-1.56-0.9-3.51,0.23-3.51,2.03v30.28c0,1.8,1.95,2.93,3.51,2.03l26.22-15.14
			C349.33,227.04,349.33,224.78,347.77,223.88z"/>
	</g>
	<g>
		<path class="st3" d="M49.89,181.3c-13.34,0-24.19-10.85-24.19-24.19V88.9c0-13.34,10.85-24.19,24.19-24.19h84.09
			c13.34,0,24.19,10.85,24.19,24.19v68.21c0,13.34-10.85,24.19-24.19,24.19H49.89z"/>
		<path class="st11" d="M37.61,157.11V88.9c0-6.78,5.5-12.28,12.28-12.28h84.09c6.78,0,12.28,5.5,12.28,12.28v68.21
			c0,6.78-5.5,12.28-12.28,12.28H49.89C43.11,169.39,37.61,163.89,37.61,157.11z"/>
		<path class="st12" d="M69.8,108.51l-32.19,42v6.59c0,6.78,5.5,12.28,12.28,12.28h62.99L69.8,108.51z"/>
		<path class="st8" d="M85.21,169.39h48.77c3.36,0,6.4-1.35,8.62-3.54l-27.67-34.18L85.21,169.39z"/>
		<circle id="XMLID_10_" class="st13" cx="107.59" cy="104.85" r="10.12"/>
	</g>
</g>
<g>
	<circle class="st12" cx="274.68" cy="52.97" r="46.13"/>
	<g>
		<circle class="st11" cx="262.86" cy="64.73" r="10.77"/>
		<path class="st11" d="M299.52,72.89c-0.15,0-0.29-0.01-0.44-0.02c-2.26-0.24-3.89-2.26-3.65-4.52c1.05-9.92-2.37-19.64-9.4-26.67
			c-7.03-7.03-16.75-10.45-26.67-9.4c-2.25,0.24-4.28-1.4-4.52-3.65c-0.24-2.26,1.4-4.28,3.65-4.52
			c12.41-1.32,24.56,2.97,33.35,11.76c8.79,8.79,13.08,20.95,11.76,33.35C303.38,71.32,301.6,72.89,299.52,72.89z"/>
		<path class="st11" d="M285.22,71.53c-0.16,0-0.31-0.01-0.47-0.03c-2.26-0.26-3.88-2.29-3.62-4.55c0.64-5.61-1.28-11.11-5.27-15.1
			c-3.99-3.99-9.49-5.9-15.1-5.27c-2.26,0.27-4.29-1.36-4.55-3.62c-0.26-2.26,1.36-4.29,3.62-4.55c8.12-0.93,16.08,1.85,21.85,7.62
			c5.77,5.77,8.55,13.73,7.62,21.85C289.05,69.98,287.28,71.53,285.22,71.53z"/>
	</g>
</g>
</svg>
